<svg width="46" height="46" viewBox="0 0 46 46" fill="none" xmlns="http://www.w3.org/2000/svg">
<rect y="0.00195312" width="45.5" height="45.5" fill="#ffbb11"/>
<path d="M28.6671 24.054H19.9612L23.3378 27.2841C23.8219 27.7926 23.8219 28.6144 23.3378 29.1229C22.8537 29.6314 22.0685 29.6314 21.5804 29.1229L15.9582 23.6716C15.7141 23.4356 15.592 23.1142 15.592 22.7603V22.744C15.592 22.3901 15.7141 22.0687 15.9582 21.8327L21.5763 16.3814C22.0645 15.8729 22.8496 15.8729 23.3337 16.3814C23.8179 16.8899 23.8179 17.7117 23.3337 18.2202L19.9572 21.4503H28.663C29.3506 21.4503 29.9079 22.0321 29.9079 22.7521C29.912 23.4844 29.3546 24.054 28.6671 24.054V24.054Z" fill="white"/>
</svg>
