<svg width="23" height="23" viewBox="0 0 23 23" fill="none" xmlns="http://www.w3.org/2000/svg">
<circle cx="11.5" cy="11.5" r="10.5" stroke="black" stroke-width="2"/>
<path d="M9.21161 17.1902L10.5256 17.3342H12.5416L13.9096 17.1902V16.5242L12.8296 16.2182V10.3682C12.8296 9.46815 12.8836 8.40615 12.8836 8.40615C11.3356 8.40615 10.0576 8.65815 9.21161 8.80215L9.17561 9.57615C9.39161 9.55815 9.91361 9.55815 10.3096 9.79215C10.5076 9.90015 10.5256 10.1522 10.5256 11.0162V14.2922C10.5256 16.0922 10.5076 16.2002 9.87761 16.3622L9.21161 16.5242V17.1902ZM11.5876 7.00215C12.2716 7.00215 12.8836 6.44415 12.8836 5.70615C12.8836 5.00415 12.2896 4.42815 11.5876 4.42815C10.8496 4.42815 10.2916 5.00415 10.2916 5.70615C10.2916 6.44415 10.8496 7.00215 11.5876 7.00215Z" fill="black"/>
</svg>
