<svg width="17" height="17" viewBox="0 0 17 17" fill="none" xmlns="http://www.w3.org/2000/svg">
<path fill-rule="evenodd" clip-rule="evenodd" d="M7.6001 0.535889H9.12509V2.82166H7.6001V0.535889ZM12.3644 3.46802L13.7358 2.09656L14.8037 3.16443L13.4322 4.53589L12.3644 3.46802ZM1.92509 3.16443L2.99295 2.09656L4.36438 3.46802L3.29652 4.53589L1.92509 3.16443ZM3.79295 8.53589C3.79295 6.02161 5.8501 3.96448 8.36438 3.96448C10.8787 3.96448 12.9358 6.02161 12.9358 8.53589C12.9358 11.0502 10.8787 13.1073 8.36438 13.1073C5.8501 13.1073 3.79295 11.0502 3.79295 8.53589ZM14.0787 7.77515H16.3644V9.30017H14.0787V7.77515ZM0.36438 7.77515H2.6501V9.30017H0.36438V7.77515ZM12.3644 13.6038L13.4322 12.5359L14.8037 13.9073L13.7358 14.9752L12.3644 13.6038ZM1.92509 13.9073L3.29652 12.5359L4.36438 13.6038L2.99295 14.9752L1.92509 13.9073ZM7.6001 14.2501H9.12509V16.5359H7.6001V14.2501ZM8.36437 11.4816C9.99127 11.4816 11.3101 10.1627 11.3101 8.53589C11.3101 6.90894 9.99127 5.59009 8.36437 5.59009C6.73749 5.59009 5.41862 6.90894 5.41862 8.53589C5.41862 10.1627 6.73749 11.4816 8.36437 11.4816Z" fill="black"/>
</svg>
