<svg width="17" height="17" viewBox="0 0 17 17" fill="none" xmlns="http://www.w3.org/2000/svg">
<path d="M9.12509 0.535889H7.60009V2.8216H9.12509V0.535889ZM13.7358 2.0966L12.3644 3.46803L13.4322 4.53589L14.8037 3.16446L13.7358 2.0966ZM2.99295 2.0966L1.92509 3.16446L3.29652 4.53589L4.36438 3.46803L2.99295 2.0966ZM8.36438 3.96446C5.85009 3.96446 3.79295 6.0216 3.79295 8.53589C3.79295 11.0502 5.85009 13.1073 8.36438 13.1073C10.8787 13.1073 12.9358 11.0502 12.9358 8.53589C12.9358 6.0216 10.8787 3.96446 8.36438 3.96446ZM16.3644 7.77517H14.0787V9.30017H16.3644V7.77517ZM2.65009 7.77517H0.36438V9.30017H2.65009V7.77517ZM13.4322 12.5359L12.3644 13.6037L13.7358 14.9752L14.8037 13.9073L13.4322 12.5359ZM3.29652 12.5359L1.92509 13.9073L2.99295 14.9752L4.36438 13.6037L3.29652 12.5359ZM9.12509 14.2502H7.60009V16.5359H9.12509V14.2502Z" fill="white"/>
</svg>
